<svg xmlns="http://www.w3.org/2000/svg" viewBox="0 0 492.9 97.4">
  <linearGradient id="a" gradientUnits="userSpaceOnUse" x1="30.55" y1="297.4" x2="30.55" y2="200" gradientTransform="translate(0 -200)">
    <stop offset="0" style="stop-color:#0afa50"/>
    <stop offset=".21" style="stop-color:#0ae550"/>
    <stop offset=".35" style="stop-color:#0adc50"/>
    <stop offset=".38" style="stop-color:#09d851"/>
    <stop offset=".79" style="stop-color:#03a857"/>
    <stop offset="1" style="stop-color:#00965a"/>
  </linearGradient>
  <path style="fill:url(#a)" d="M0 0h27.3l18.9 67.1 14.9 30.3H31.5z"/>
  <linearGradient id="b" gradientUnits="userSpaceOnUse" x1="62" y1="297.4" x2="62" y2="200" gradientTransform="translate(0 -200)">
    <stop offset="0" style="stop-color:#00965a"/>
    <stop offset=".21" style="stop-color:#03a857"/>
    <stop offset=".62" style="stop-color:#09d851"/>
    <stop offset=".65" style="stop-color:#0adc50"/>
    <stop offset=".79" style="stop-color:#0ae550"/>
    <stop offset="1" style="stop-color:#0afa50"/>
  </linearGradient>
  <path style="fill:url(#b)" d="M65.3 0h27.2L61.1 97.4H31.5l14.7-30.3z"/>
  <path d="M106 19.1c-2.2-2-3.5-4.9-3.4-7.9-.1-3 1.2-6 3.4-8 2.4-2.2 5.6-3.3 8.8-3.2 3.2-.1 6.3 1 8.7 3.2 2.2 2 3.5 5 3.4 8 .1 3-1.2 5.9-3.4 7.9-2.4 2.2-5.5 3.3-8.7 3.2-3.2.1-6.4-1.1-8.8-3.2zm19.1 10.2v67.2h-20.6V29.3h20.6zm44.5 2.4c3.6-2.1 7.8-3.2 12-3.2v21.8H176c-5.1 0-9 1.1-11.6 3.3s-3.8 6.1-3.9 11.6v31.2H140V29.3h20.6v11.2c2.3-3.6 5.4-6.6 9-8.8zM193 19.1c-2.2-2-3.5-4.9-3.4-7.9-.1-3 1.2-6 3.4-8 2.4-2.2 5.6-3.3 8.9-3.2 3.2-.1 6.3 1 8.7 3.2 2.3 2 3.5 5 3.4 8 .1 3-1.2 5.9-3.4 7.9-2.4 2.2-5.5 3.3-8.7 3.2-3.3.1-6.5-1-8.9-3.2zm19.1 10.2v67.2h-20.6V29.3h20.6zm14.8 15.2c2.4-4.9 6-9.1 10.6-12 4.5-2.8 9.7-4.3 15.1-4.2 4.2 0 8.3.9 12.1 2.8 3.5 1.7 6.4 4.3 8.6 7.5V7.3h20.6v89.1h-20.6v-9.6c-2 3.3-4.9 5.9-8.3 7.7-3.9 2-8.1 3-12.5 2.9-5.3.1-10.6-1.4-15.1-4.3-4.6-3-8.3-7.2-10.6-12.1-2.7-5.7-4-11.9-3.9-18.2-.1-6.3 1.2-12.6 4-18.3zm42.1 6.2c-5.5-5.8-14.7-6-20.4-.4l-.4.4c-2.9 2.9-4.3 7-4.3 12.1s1.4 9.2 4.3 12.3c5.4 5.8 14.5 6 20.2.6l.6-.6c2.8-3 4.3-7 4.3-12.2s-1.5-9.3-4.3-12.2zm41.3-31.6c-2.2-2-3.5-4.9-3.4-7.9-.1-3 1.2-6 3.4-8 2.4-2.2 5.6-3.3 8.8-3.2 3.2-.1 6.4 1 8.7 3.2 2.3 2 3.5 5 3.4 8 .1 3-1.2 5.9-3.4 7.9-2.4 2.2-5.5 3.3-8.7 3.2-3.2.1-6.4-1-8.8-3.2zm19.1 10.2v67.2h-20.6V29.3h20.6zm14.7 15.2c2.4-4.9 6-9.1 10.6-12 4.5-2.8 9.7-4.3 15-4.2 4.3-.1 8.6.9 12.5 2.9 3.4 1.7 6.2 4.4 8.2 7.6v-9.5H411v67.2h-20.6V87c-2.1 3.2-5 5.8-8.4 7.6-3.8 2-8.1 3-12.5 2.9-5.3.1-10.5-1.4-14.9-4.3-4.6-3-8.3-7.2-10.7-12.1-2.7-5.7-4-11.9-3.9-18.2.1-6.4 1.4-12.7 4.1-18.4zm42.2 6.2c-5.5-5.8-14.7-6-20.4-.4l-.4.4c-2.9 2.9-4.3 7-4.3 12.1s1.4 9.2 4.3 12.3c5.4 5.8 14.5 6.1 20.2.6l.6-.6c2.9-3 4.3-7 4.3-12.2-.1-5.1-1.5-9.2-4.3-12.2zm99.5-14.5c4.7 5.1 7 12.1 7 21v39.3h-20.4V60c0-4.5-1.2-8-3.5-10.5-5.3-5-13.5-5-18.8 0-2.3 2.5-3.5 6-3.5 10.5v36.4H426V29.3h20.6v8.9c2.2-3 5.1-5.4 8.4-7 3.7-1.8 7.8-2.7 11.9-2.6 8-.1 14.2 2.5 18.9 7.6z" style="fill:#1e2830"/>
</svg>