<svg xmlns="http://www.w3.org/2000/svg" viewBox="0 0 450.21 81.46">
  <path fill="#1e2832" d="M14.77 45c0 1.62-.4 10.27 8.85 10.27 9.5 0 10.93-6 11.2-7.46h-9.46L27 37.66h23.21L49 44.92C46.39 61 33.45 67.63 21.73 67.63 6.62 67.63 0 58.14 0 46.48c0-18.69 13.49-32.65 30.58-32.65 15.08 0 20.79 10.31 20 18H36.2c-.07-.9-.12-5.62-6.85-5.62C19 26.21 14.77 36.6 14.77 45ZM60.9 14.55l-8.69 52.36h14.11L75 14.55Zm35.8 46.84h.3l-.92 5.52h13.19l4.5-26.9c1.28-7.46-5.12-12.88-16-12.88-16.3 0-19.7 10.91-20.25 13.29h13c.46-1.57 1.71-3.58 5.42-3.58 3.24 0 3.72 1.73 3.72 2.55 0 3.18-3.33 3.67-9.75 4.2-12.77 1.06-16.71 7.92-16.71 15.1 0 4.51 2.88 8.83 11.08 8.83s11.39-4.67 12.42-6.13Zm-9.87-5.6c0-4.5 6.13-4.16 11.3-6.06L97.62 53c-.66 4-4.47 5.63-7.16 5.63-2.88 0-3.63-1.63-3.63-2.84Zm50.77.21c-4.95 0-4.91-4.3-4.6-6.24l3.68-22.09h-14.11l-4.19 25c-1 6.16 1.05 14.73 11.25 14.73 8.24 0 12.3-5.41 13.39-8h.41l-1.22 7.47h13.39l6.55-39.27H148l-3.69 22.09C144.14 51 143 56 137.6 56Zm65.76-5.42h-13.09c-.34 1.36-1.84 6.34-6.75 6.34-5.06 0-4.81-5.85-4.78-6.79 0-3.68 1.66-12.44 8.06-12.44 4.35 0 4.65 4.3 4.5 6.34h13.09c1.32-7.3-1.65-16.87-16.06-16.87-15.82 0-24.12 12.22-24.12 24.54 0 10.81 7.35 16 17.37 16 16.73-.07 21.19-12.7 21.78-17.15Zm46-7.82c0-6-3-15.6-17.35-15.6-17 0-24.1 13.56-24.1 24.51 0 10.25 6.63 16 17.35 16 14.74-.04 24.09-10.94 24.09-24.94Zm-27 7.91c0-4.75 2.14-13.29 7.87-13.29 4.77 0 4.6 5.85 4.6 6.54 0 5.34-2.45 13.3-7.87 13.3-4.68-.03-4.57-5.89-4.57-6.58ZM273 56c-4.95 0-4.91-4.3-4.6-6.24l3.68-22.09H258l-4.19 25c-1.06 6.16 1.05 14.73 11.25 14.73 8.24 0 12.3-5.41 13.39-8h.41l-1.22 7.47H291l6.55-39.27h-14.12l-3.68 22.09C279.54 51 278.39 56 273 56Zm48.28-28.84c-15.6 0-19.51 8.41-19.51 13.85 0 7.65 6.63 9.68 10.51 10.38l6.72 1.2c2.38.45 3.79.86 3.79 2.15 0 .77-1.2 3.37-5.83 3.37-1.43 0-4.61-.51-4.61-3.88h-13.7c-.62 9.78 7.94 13.4 18.1 13.4 10.62 0 20.51-5.12 20.51-15.09 0-6-6.08-8.32-10.59-9.15L318.93 42c-2-.4-3.07-.58-3.07-2.05s2.29-3.37 5.73-3.37c2.93 0 4.37 2.06 4.09 3.88h12.68c.98-7.73-4.36-13.33-17.08-13.33Z"/>
  <path fill="#5d7eb0" d="M417.71 12.06c-17-21.77-60.88-14.46-60.88 25.16C368.24 6.45 400 3.94 410.55 25.1c21.55-4.33 37.23-7.69 39.44-.38 1.63-6.93-5.2-12.66-32.28-12.66Zm-27.92 59C438.06 17.41 365.94-8.56 357 57.35c18.94-45.52 59.71-30.9 32.79 13.72Zm-2.5-7.69c21.15-36.55-26.55-37.89-27.7 18.08 10.58-37.45 35.97-47.12 27.7-18.07Zm24.43-33.15L421.8 28c-.78 8.53-5.49 18.81-16 30.54 5.6-11.54 7.11-20.96 5.92-28.31Z"/>
</svg>