<svg id="_01" data-name="01" xmlns="http://www.w3.org/2000/svg" viewBox="0 0 100 100"><defs><style>.cls-1{fill:#fafafa;}.cls-2{fill:#141414;}</style></defs><rect id="_00" data-name="00" class="cls-1" width="100" height="100"/><path id="_01-2" data-name="01" class="cls-2" d="M49.19,83.26l-1.83-.11A32.82,32.82,0,0,1,29.14,76.1l-1.53-1.23.05-.1c.27.06.54.11.81.18a16.43,16.43,0,0,0,6.91.09,2.62,2.62,0,0,1,1.84.25c.86.46,1.79.8,2.69,1.18a2,2,0,0,0,.35.11l.08-.07-1.5-2.21.83-.34c.5-.2,1-.38,1.49-.6a.5.5,0,0,1,.7.17c.51.66,1,1.33,1.53,2s.93,1.09,1.39,1.64a2.23,2.23,0,0,0,.92.72,7.88,7.88,0,0,0,2.13.32l.11,0,.9-3.54S50.28,69,51,66.22c.07-.29.2-.39.47-.37,1.45.1,2.9.14,4.34.3s3.16.44,4.73.69c.33,0,.54,0,.66-.34.5-1.27,1.05-2.53,1.49-3.82A36.33,36.33,0,0,0,64.6,52.25v-.41c-3.28-.05-6.55.06-9.87-.11,0-.17,0-.29.05-.41.16-.64.33-1.27.46-1.91.06-.27.19-.32.44-.32l8.6-.06h.37c0-.26,0-.48-.06-.71a.34.34,0,0,1,.33-.42c.93-.09,1.86-.16,2.81-.24.06.42.1.78.17,1.14a.33.33,0,0,0,.24.22h9.14l.1,0a14.28,14.28,0,0,0-.08-1.46c-.18-1.24-.39-2.47-.59-3.7a.5.5,0,0,1,.08-.32c1.14-1.14,2.29-2.26,3.44-3.39a4.7,4.7,0,0,1,.49-.38c.1.3.21.55.28.81a34.47,34.47,0,0,1,1.26,6.22c0,.56.06,1.13.1,1.7,0,.17,0,.33.06.49v3.35c0,.11,0,.22,0,.33-.2,1.46-.31,2.93-.6,4.37a32,32,0,0,1-9.34,16.93,32.21,32.21,0,0,1-21.7,9.26l-1.14.06Zm15-15.55.23.1,4.94,1.77a.41.41,0,0,0,.53-.14,30.47,30.47,0,0,0,3.22-4.19,27.94,27.94,0,0,0,4.21-12c.06-.45,0-.91.07-1.38H77l-8.57,0c-.67,0-.54,0-.58.56,0,.18,0,.36-.05.54A40.59,40.59,0,0,1,65.3,64.77Zm-13.43.9v9.62a9.78,9.78,0,0,0,3.11-.64,4.08,4.08,0,0,0,.47-.32,3.07,3.07,0,0,0,.47-.49,49.4,49.4,0,0,0,4.49-6.39c.12-.21.22-.42.33-.64A55.27,55.27,0,0,0,50.75,68.61Zm16.67,3.15c-.14-.06-.24-.12-.34-.15-1.19-.38-2.38-.77-3.57-1.13-.69-.2-.69-.18-1,.46l-.06.11L59.26,76l-.34.53A27.43,27.43,0,0,0,67.42,71.76Zm4-38.79c-.33-.35-.59-.64-.84-.93a.29.29,0,0,0-.37-.1L65,33.73l-.19.07c-.29.08-.34.24-.22.52a49.08,49.08,0,0,1,2.16,6.61c.15.65.29,1.3.42,2a.42.42,0,0,1-.08.33c-.84.94-1.69,1.87-2.54,2.8h-.08c-.12-.88-.22-1.76-.36-2.64a41.43,41.43,0,0,0-2.24-8.34c-.18-.46-.24-.5-.73-.44-1.43.19-2.85.42-4.28.56-1.79.17-3.58.27-5.37.4l-.72,0V49.15c-.75.38-1.57.81-2.4,1.22s-1.78.87-2.68,1.29a1.93,1.93,0,0,1-.7.16H34.45c0,.46,0,.91.09,1.34.13,1.16.27,2.31.42,3.46a.38.38,0,0,1-.24.47c-.86.4-1.7.82-2.61,1.25a56.17,56.17,0,0,1-.85-6.5H21.8a25.64,25.64,0,0,0,1.06,6.33,30.15,30.15,0,0,0,2.46,5.9l-.1.1c-.2-.08-.4-.15-.6-.24a16.59,16.59,0,0,1-4.88-3.47c-.64-.62-1.27-1.25-1.89-1.9a.85.85,0,0,1-.22-.42,32.91,32.91,0,0,1-.56-12.54,32,32,0,0,1,8.39-17.56,33,33,0,0,1,39.28-6.88,7.51,7.51,0,0,1,1.62,1.11,16.91,16.91,0,0,1,4.5,6.24,9.05,9.05,0,0,1,.63,3.67C71.48,32.43,71.42,32.66,71.38,33ZM47.89,49V35.57c-1.06-.08-2.09-.12-3.12-.25-2.37-.28-4.74-.59-7.1-.91-.29,0-.41.05-.49.29-.33.92-.69,1.83-1,2.77a42.13,42.13,0,0,0-1.68,9.7c0,.61-.06,1.22-.09,1.84ZM34.58,33.77c-1-.31-1.88-.57-2.78-.89s-1.81-.7-2.7-1.07a.28.28,0,0,0-.39.1c-.66.84-1.36,1.63-2,2.5a28,28,0,0,0-4.81,12.46c-.09.7-.11,1.41-.17,2.13h9.52A44.14,44.14,0,0,1,34.58,33.77Zm25.75-2.08-.56-.93a35.48,35.48,0,0,0-6-7.34,4.39,4.39,0,0,0-3-.92V32.8C54,32.54,57.14,32.26,60.33,31.69Zm-21.78,0a88.73,88.73,0,0,0,9.37,1.15V24.64c0-.48,0-1,0-1.44,0-.67-.05-.66-.72-.63a4,4,0,0,0-2.83,1.23,33.31,33.31,0,0,0-5.25,6.86C38.91,31,38.75,31.27,38.55,31.66ZM58.1,23.83,58,23.9c.13.18.25.36.39.52a37.28,37.28,0,0,1,4.47,6.45.42.42,0,0,0,.56.25l4.36-1.24c.12,0,.24-.1.44-.19A28.55,28.55,0,0,0,58.1,23.83Zm-17.76.35-.08-.06-.44.14a26.33,26.33,0,0,0-5.74,3c-.94.65-1.85,1.36-2.76,2.06-.36.29-.32.48.11.63s.81.27,1.22.37l3,.71c.2.05.3,0,.4-.2a42.2,42.2,0,0,1,4-6.15C40.14,24.51,40.23,24.34,40.34,24.18Zm-21.11,39a12.88,12.88,0,0,0,3.48,6.12,13.08,13.08,0,0,0,6.62,3.76,16.81,16.81,0,0,0,6.81-.21,26.31,26.31,0,0,0,6.42-2.35.51.51,0,0,1,.6.05c1,.69,2.1,1.36,3.15,2,.26.17.53.31.84.48,2-7.54,3.86-15,5.72-22.51l-.1-.08L30.19,61.56l3.71,2.27c.37.23.36.26.11.62a5.17,5.17,0,0,1-2.89,2,10.12,10.12,0,0,1-6.34-.31,15.36,15.36,0,0,1-5.64-3.43C19.18,62.91,19.2,63,19.23,63.17ZM68.1,45.56l.5-.12a22.33,22.33,0,0,0,5.66-2.76A31.8,31.8,0,0,0,79.47,38a.87.87,0,0,0,.29-.83c-.06-.32-.05-.66-.08-1a14.1,14.1,0,0,0-3.9-8.6,17.22,17.22,0,0,0-5.3-3.5s-.07,0-.13,0l.06.11.44.46a8,8,0,0,1,2,3.2,12.84,12.84,0,0,1,.43,6.09A20.93,20.93,0,0,1,68.39,45c-.13.15-.23.32-.35.48Z"/></svg>