<svg id="_01" data-name="01" xmlns="http://www.w3.org/2000/svg" viewBox="0 0 100 100"><defs><style>.cls-1{fill:#fafafa;}.cls-2{fill:#4285f4;}.cls-3{fill:#34a853;}.cls-4{fill:#fbbc05;}.cls-5{fill:#ea4335;}</style></defs><rect id="_00" data-name="00" class="cls-1" width="100" height="100"/><g id="_01-2" data-name="01"><path id="_01-3" data-name="01" class="cls-2" d="M81.83,50.73a37.15,37.15,0,0,0-.52-6.15H50.69V56.8H68.22a15,15,0,0,1-6.5,9.7v8.13H72.18C78.31,69,81.83,60.62,81.83,50.73Z"/><path id="_02" data-name="02" class="cls-3" d="M50.69,82.52c8.78,0,16.13-2.93,21.49-7.89L61.72,66.5a19.64,19.64,0,0,1-11,3.15A19.43,19.43,0,0,1,32.45,56.21H21.67v8.37A32.47,32.47,0,0,0,50.69,82.52Z"/><path id="_03" data-name="03" class="cls-4" d="M32.45,56.21a19.12,19.12,0,0,1-1-6.21,19.67,19.67,0,0,1,1-6.21V35.42H21.67a32.12,32.12,0,0,0,0,29.16Z"/><path id="_04" data-name="04" class="cls-5" d="M50.69,30.35a17.67,17.67,0,0,1,12.47,4.88L72.43,26a31.14,31.14,0,0,0-21.74-8.48,32.47,32.47,0,0,0-29,17.94l10.78,8.37A19.43,19.43,0,0,1,50.69,30.35Z"/></g></svg>